<svg width="24" height="24" viewBox="0 0 24 24" fill="none" xmlns="http://www.w3.org/2000/svg">
<path d="M16 20V20C16 17.7909 14.2091 16 12 16H8C5.79086 16 4 17.7909 4 20V20" stroke="white" stroke-linecap="round"/>
<circle cx="10" cy="10" r="3.5" stroke="white"/>
<path fill-rule="evenodd" clip-rule="evenodd" d="M14.9274 10.8539C16.1304 10.4633 17 9.3332 17 8C17 6.34315 15.6569 5 14 5C13.3575 5 12.7622 5.20197 12.2741 5.54588C11.9361 5.37298 11.5759 5.23741 11.1988 5.14463C11.9204 4.43662 12.9092 4 14 4C16.2092 4 18 5.79086 18 8C18 10.004 16.5263 11.6638 14.6035 11.9548C14.7516 11.6063 14.8614 11.2376 14.9274 10.8539Z" fill="white"/>
<path fill-rule="evenodd" clip-rule="evenodd" d="M16 14.5H12.1821C12.7016 14.2476 13.1708 13.9079 13.5707 13.5H16C18.4853 13.5 20.5 15.5147 20.5 18C20.5 18.2761 20.2761 18.5 20 18.5C19.7239 18.5 19.5 18.2761 19.5 18C19.5 16.067 17.933 14.5 16 14.5Z" fill="white"/>
</svg>
