<svg width="16" height="16" viewBox="0 0 16 16" fill="none" xmlns="http://www.w3.org/2000/svg">
<path d="M3.31563 13.8745L1.12857 11.7316C0.85379 11.4624 1.04853 11 1.43794 11L2.75 11L2.75 2.42857C2.75 2.19187 2.94586 2 3.1875 2L4.0625 2C4.30413 2 4.5 2.19187 4.5 2.42857L4.5 11L5.81195 11C6.20059 11 6.39667 11.4619 6.12132 11.7316L3.93434 13.8745C3.7636 14.0418 3.48647 14.0419 3.31563 13.8745Z" fill="white"/>
<path fill-rule="evenodd" clip-rule="evenodd" d="M11 2L15.2 7H15.1667L15.25 7.1V12.5C15.25 13.3284 14.5784 14 13.75 14H8.5C7.67157 14 7 13.3284 7 12.5V3.5C7 2.67157 7.67157 2 8.5 2H11ZM11 3.5H8.5V12.5H13.75V7H12.5C11.6716 7 11 6.32843 11 5.5V3.5ZM9.5 7.99993C9.5 7.72379 9.72386 7.49993 10 7.49993H11C11.2761 7.49993 11.5 7.72379 11.5 7.99993C11.5 8.27607 11.2761 8.49993 11 8.49993H10C9.72386 8.49993 9.5 8.27607 9.5 7.99993ZM10 9.49993C9.72386 9.49993 9.5 9.72379 9.5 9.99993C9.5 10.2761 9.72386 10.4999 10 10.4999H12C12.2761 10.4999 12.5 10.2761 12.5 9.99993C12.5 9.72379 12.2761 9.49993 12 9.49993H10Z" fill="white"/>
</svg>
