<svg width="24" height="24" viewBox="0 0 24 24" fill="none" xmlns="http://www.w3.org/2000/svg">
<path d="M18.953 13.6235L18.9527 13.6232L18.3541 12.9802L18.1967 12.8111L18.2186 12.6228L18.2181 12.617L18.2219 12.5753C18.2338 12.4426 18.2418 12.3075 18.2472 12.1703C18.2475 12.1606 18.2475 12.1481 18.2473 12.1273L18.953 13.6235ZM18.953 13.6235C19.0073 13.6817 19.0738 13.7478 19.1341 13.8077C19.1598 13.8333 19.1843 13.8577 19.2063 13.8799C19.2893 13.9636 19.3584 14.0375 19.4118 14.1066C19.4565 14.1642 19.4771 14.2009 19.4862 14.221L18.8516 15.7456C18.8309 15.7534 18.7901 15.7648 18.7171 15.7738C18.6303 15.7846 18.529 15.7877 18.4113 15.7879C18.3797 15.7879 18.3447 15.7877 18.3081 15.7875C18.2234 15.787 18.13 15.7864 18.051 15.7889L18.0506 15.7889L17.1727 15.8171L16.9475 15.8244L16.8238 15.9737M18.953 13.6235L16.8238 15.9737M16.9068 16.6334C16.9886 16.5457 17.0708 16.4538 17.1503 16.3582C17.1594 16.3497 17.1665 16.3424 17.1742 16.3313C17.1809 16.3254 17.185 16.3215 17.1888 16.3169L18.0666 16.2887C18.1362 16.2865 18.2126 16.287 18.2922 16.2874C18.6882 16.2899 19.1654 16.2928 19.2983 15.9734L19.9625 14.378L16.8075 15.9942L16.8072 15.9945M16.9068 16.6334L16.5461 16.2872C16.5452 16.2881 16.5444 16.289 16.5435 16.2899M16.9068 16.6334L16.5409 16.2927C16.5418 16.2918 16.5427 16.2908 16.5435 16.2899M16.9068 16.6334C16.873 16.6687 16.8382 16.7031 16.8038 16.737C16.7811 16.7595 16.7585 16.7818 16.7364 16.8041M16.5435 16.2899C16.62 16.2077 16.6948 16.1241 16.7658 16.0386L16.7835 16.0173M16.5435 16.2899C16.5129 16.3218 16.4885 16.3458 16.4606 16.3732C16.4389 16.3946 16.4151 16.418 16.3845 16.4489M16.7835 16.0173L16.7677 16.0401L16.7635 16.0462C16.7649 16.0442 16.7663 16.0422 16.7678 16.0402C16.7754 16.0296 16.7838 16.0193 16.7925 16.0097C16.7971 16.0047 16.8011 16.0006 16.8038 15.9979C16.8054 15.9962 16.8066 15.9951 16.8072 15.9945M16.7835 16.0173L16.798 15.9965L16.8238 15.9737M16.7835 16.0173L16.7853 16.0151L16.8042 15.9974L16.8072 15.9945M16.8072 15.9945L16.8238 15.9737M16.3845 16.4489C16.3858 16.4477 16.3871 16.4464 16.3884 16.4452L16.7364 16.8041M16.3845 16.4489C16.3426 16.4897 16.3286 16.505 16.3192 16.5153C16.3106 16.5247 16.3058 16.53 16.2871 16.5466L16.2706 16.5612L16.2613 16.571M16.3845 16.4489C16.3833 16.4502 16.382 16.4514 16.3808 16.4527L16.7364 16.8041M16.7364 16.8041C16.7216 16.8185 16.707 16.8335 16.6924 16.8486C16.6688 16.873 16.6448 16.8977 16.6186 16.9209C16.6064 16.9338 16.5924 16.9458 16.5781 16.9581C16.5678 16.9669 16.5573 16.9759 16.5471 16.9856M16.2613 16.571L16.2578 16.5741L16.237 16.592C16.2318 16.5965 16.2258 16.6018 16.2192 16.6078M16.2613 16.571L16.2555 16.5771C16.2606 16.5718 16.264 16.5687 16.2641 16.5685L16.2642 16.5685C16.2642 16.5685 16.2638 16.5689 16.2628 16.5697L16.2613 16.571ZM16.5471 16.9856L16.2252 16.603C16.2261 16.6022 16.2269 16.6015 16.2269 16.6015C16.2269 16.6015 16.2263 16.602 16.2247 16.6034C16.2237 16.6042 16.2217 16.6057 16.2192 16.6078M16.5471 16.9856L16.2034 16.6224C16.209 16.6172 16.2143 16.6123 16.2192 16.6078M16.5471 16.9856C16.5445 16.9878 16.5418 16.9899 16.5392 16.9921C16.5309 16.9987 16.5227 17.0054 16.5152 17.0141M16.2192 16.6078C16.2162 16.6103 16.2122 16.6135 16.2081 16.617C16.1978 16.6258 16.1826 16.639 16.1653 16.6565M16.1653 16.6565C16.1696 16.6525 16.174 16.6486 16.1783 16.6446L16.5152 17.0141M16.1653 16.6565C16.1008 16.7152 16.0393 16.7702 15.9774 16.8219L15.8057 16.9652L15.798 17.1887L15.7678 18.0642L16.2675 18.0818M16.1653 16.6565C16.1562 16.6657 16.1464 16.6761 16.1365 16.6876L16.5152 17.0141M16.5152 17.0141C16.4453 17.0778 16.3729 17.1432 16.2977 17.2059L16.2675 18.0818M16.2675 18.0818C16.265 18.152 16.2652 18.2289 16.2654 18.309C16.2665 18.7056 16.2677 19.1806 15.9465 19.3131L15.7678 18.0645M16.2675 18.0818L15.7678 18.0645M15.7678 18.0645C15.765 18.1443 15.7652 18.2381 15.7654 18.3231C15.7655 18.3595 15.7656 18.3942 15.7654 18.4256C15.7649 18.5435 15.7614 18.6445 15.7503 18.731C15.741 18.804 15.7294 18.8445 15.7216 18.865M15.7678 18.0645L15.7216 18.865M15.7216 18.865L14.1955 19.4938C14.1756 19.4847 14.1392 19.4641 14.0818 19.4194C14.0132 19.3658 13.9396 19.2965 13.8562 19.2131C13.8341 19.1912 13.81 19.1667 13.7847 19.141C13.7247 19.0802 13.6584 19.0131 13.5999 18.9581L13.5993 18.9576L12.9592 18.358L12.8024 18.2111L12.5879 18.2238C12.5196 18.2278 12.4525 18.2313 12.3826 18.2343L12.3826 18.2343L12.3757 18.2346C12.3554 18.2358 12.3383 18.2369 12.3231 18.2378C12.295 18.2396 12.2731 18.241 12.2479 18.2419L12.2479 18.2418L12.2421 18.2421C12.1439 18.2466 12.0485 18.2485 11.9557 18.2463L11.9557 18.2462L11.9456 18.2462C11.9119 18.2461 11.8922 18.2463 11.8763 18.2466C11.8595 18.2468 11.8468 18.247 11.8262 18.2466C11.8151 18.2462 11.8031 18.2455 11.7848 18.2444L11.7845 18.2444C11.7699 18.2436 11.7512 18.2425 11.7309 18.2417C11.7132 18.2403 11.6983 18.2395 11.6896 18.2391L11.689 18.239L11.6741 18.2383C11.671 18.2381 11.6698 18.238 11.6696 18.238L11.6696 18.238L11.6612 18.2373L11.6528 18.2368C11.6387 18.2361 11.6253 18.2355 11.6124 18.2348C11.5422 18.2313 11.4894 18.2287 11.4353 18.2227L11.4125 18.2202L11.3895 18.2197C11.3756 18.2195 11.364 18.2198 11.3562 18.2201L11.3547 18.2201L11.1665 18.2166L11.0186 18.3543L10.3754 18.9528L10.3749 18.9533C10.3166 19.0077 10.2503 19.0745 10.1903 19.1348C10.165 19.1604 10.1407 19.1848 10.1187 19.2067C10.0351 19.2895 9.96136 19.3586 9.89251 19.4119C9.83503 19.4565 9.79846 19.4771 9.77844 19.4862L8.2541 18.8516C8.24636 18.8309 8.23496 18.7901 8.2259 18.717C8.21514 18.6303 8.21201 18.529 8.2118 18.4112C8.21175 18.3798 8.21195 18.3449 8.21216 18.3084C8.21264 18.2237 8.21318 18.1305 8.2107 18.0514L15.7216 18.865ZM7.09443 16.6358L7.46078 16.2955C7.4675 16.3028 7.47614 16.3114 7.49382 16.3284L7.4986 16.333C7.51343 16.3473 7.53555 16.3686 7.55778 16.3916C7.62432 16.4591 7.68827 16.5227 7.75281 16.5835C7.75475 16.5852 7.75672 16.5869 7.75873 16.5887C7.78932 16.6151 7.82781 16.6485 7.86523 16.6829C7.88302 16.6987 7.89832 16.7124 7.91203 16.7246C7.94563 16.7547 7.96964 16.7761 7.99724 16.7983L8.17692 16.9426L8.18394 17.1729L8.21068 18.0509L7.68417 17.1882C7.64556 17.1572 7.60781 17.1234 7.5697 17.0893C7.55653 17.0775 7.54332 17.0657 7.53001 17.0539C7.4978 17.0241 7.4643 16.9951 7.43202 16.9672C7.42722 16.963 7.42244 16.9589 7.4177 16.9548C7.34318 16.8848 7.27115 16.8131 7.19965 16.7405C7.1838 16.724 7.16766 16.7085 7.15154 16.6929C7.13228 16.6744 7.11306 16.6559 7.09443 16.6358ZM7.09443 16.6358C6.99708 16.5309 6.90366 16.4265 6.81471 16.3198M7.09443 16.6358L7.46102 16.2958C7.36973 16.1974 7.28474 16.1024 7.20513 16.0072M6.81471 16.3198L7.22319 16.0314C7.21693 16.0225 7.21085 16.0145 7.20513 16.0072M6.81471 16.3198C6.81161 16.3154 6.80832 16.3119 6.80508 16.3085C6.80173 16.3049 6.79842 16.3015 6.79542 16.2971M6.81471 16.3198L7.05192 16.1222L7.19796 16.0005C7.19016 15.9901 7.18316 15.9816 7.1778 15.9754L7.16939 15.966M7.20513 16.0072C7.20305 16.0047 7.20097 16.0022 7.1989 15.9998L7.19825 16.0003L7.19218 15.9914M7.20513 16.0072L6.79542 16.2971M7.20513 16.0072C7.20054 16.0014 7.19619 15.9961 7.19218 15.9914M7.20513 16.0072L5.93634 15.7676M6.79542 16.2971L5.91809 16.2673L6.79542 16.2971ZM7.16939 15.966L7.17336 15.9702C7.17632 15.9734 7.18059 15.9781 7.18555 15.9837C7.18763 15.9861 7.18985 15.9886 7.19218 15.9914M7.16939 15.966C7.16792 15.9645 7.16684 15.9633 7.16777 15.9643L7.16939 15.966ZM7.19218 15.9914L7.06574 15.8059L6.81239 15.7973L5.93634 15.7676M5.93634 15.7676C5.93618 15.7676 5.93603 15.7676 5.93587 15.7676C5.85535 15.7647 5.76076 15.7649 5.67523 15.765C5.63966 15.7651 5.60566 15.7652 5.57488 15.765C5.45688 15.7644 5.35574 15.761 5.26911 15.7499C5.19593 15.7406 5.15533 15.729 5.13483 15.7212L4.50623 14.1958C4.51537 14.1758 4.53606 14.1392 4.58111 14.0815C4.63483 14.0127 4.7042 13.9391 4.78754 13.8556C4.80925 13.8338 4.8334 13.81 4.85867 13.785C4.91959 13.7249 4.98697 13.6583 5.04212 13.5995C5.04216 13.5995 5.04221 13.5994 5.04225 13.5994L5.64327 12.9587L5.80237 12.7892L5.77927 12.5928L5.77938 12.5911L5.77577 12.5527C5.77268 12.5199 5.77202 12.5039 5.77113 12.4823C5.77027 12.4615 5.7692 12.4356 5.76555 12.3846C5.76428 12.3648 5.76305 12.3461 5.76188 12.3284C5.75827 12.2738 5.7552 12.2274 5.75338 12.1784C5.74816 12.0277 5.75165 11.8726 5.75943 11.7095L5.76001 11.6973L5.76029 11.6931C5.76056 11.6884 5.76086 11.6823 5.76107 11.6752C5.76192 11.6594 5.76274 11.6441 5.76352 11.6293C5.76792 11.5466 5.7716 11.4773 5.77849 11.4068L5.80043 11.182L5.64633 11.017L5.04644 10.3744C5.04641 10.3744 5.04638 10.3744 5.04635 10.3743C4.9921 10.3162 4.92563 10.2501 4.86541 10.1903C4.83974 10.1648 4.8152 10.1404 4.79324 10.1182C4.7104 10.0347 4.64142 9.9609 4.58805 9.89203C4.54337 9.83438 4.52284 9.79773 4.51375 9.77769L5.14838 8.25348C5.16904 8.2458 5.20954 8.23455 5.28187 8.22561C5.3684 8.21491 5.46941 8.21183 5.58709 8.21168C5.61841 8.21164 5.65316 8.21186 5.68952 8.21208C5.77435 8.21261 5.86794 8.21319 5.94722 8.21071M5.93634 15.7676L8.23213 5.93547L8.23214 5.93528L7.73245 5.91759M5.94722 8.21071L5.9469 8.21072L5.9316 7.71095L5.94722 8.21071ZM5.94722 8.21071L6.82555 8.18382L7.04985 8.17696L7.19381 8.00481C7.22965 7.96195 7.26765 7.92016 7.31347 7.87042L7.3136 7.87054L7.32207 7.86086C7.33973 7.84067 7.35322 7.82498 7.36492 7.81136C7.38271 7.79066 7.39637 7.77477 7.41429 7.75519M7.41429 7.75519C7.47416 7.69076 7.5385 7.62621 7.606 7.56045L7.60608 7.56052L7.61321 7.55328C7.62139 7.54498 7.62924 7.53701 7.63683 7.52929C7.6637 7.50197 7.68743 7.47785 7.71209 7.45354M7.41429 7.75519C7.41394 7.75558 7.41358 7.75596 7.41322 7.75635L7.0468 7.41615M7.41429 7.75519C7.41462 7.75484 7.41495 7.75448 7.41527 7.75413L7.0468 7.41615M7.71209 7.45354C7.8026 7.36867 7.89654 7.28625 7.99342 7.20549L8.00939 7.19218L8.02141 7.18033M7.71209 7.45354C7.71073 7.45482 7.70936 7.4561 7.708 7.45738L7.36562 7.093M7.71209 7.45354C7.71338 7.45227 7.71468 7.45099 7.71598 7.44972L7.36562 7.093M8.02141 7.18033L8.19261 7.05135L8.20104 6.81314L8.23211 5.93599L7.73245 5.91759M8.02141 7.18033L8.02421 7.17758L8.0292 7.17263L8.03221 7.16964C8.03296 7.16889 8.03328 7.16859 8.03328 7.16859C8.03328 7.16858 8.03291 7.16894 8.03234 7.16949C8.03121 7.17057 8.02822 7.1734 8.02386 7.17723C8.02374 7.17733 8.02362 7.17743 8.0235 7.17754C8.019 7.18148 8.01178 7.18759 8.00223 7.19478L8.02141 7.18033ZM7.73245 5.91759L7.70136 6.79544M7.73245 5.91759C7.73508 5.84625 7.73486 5.76793 7.73464 5.6863C7.73356 5.29114 7.73227 4.81859 8.05218 4.6868L9.64718 4.02949M7.70136 6.79544L10.4013 5.04212L11.0392 5.64269L11.2263 5.8189L11.4489 5.77505M7.70136 6.79544C7.69332 6.8015 7.68528 6.80949 7.67763 6.8171C7.67617 6.81856 7.67471 6.82001 7.67328 6.82142C7.56845 6.9088 7.46559 6.99906 7.36562 7.093M7.70136 6.79544L6.81025 7.68406C6.85446 7.63118 6.8996 7.58172 6.94578 7.5316C6.95714 7.51862 6.96829 7.50567 6.97941 7.49275C7.00156 7.46704 7.02357 7.44148 7.0468 7.41615M9.64718 4.02949L9.83766 4.49178L9.83769 4.49177L9.64718 4.02949ZM9.64718 4.02949C9.96746 3.89752 10.3015 4.23499 10.58 4.51633C10.6368 4.57369 10.6912 4.62872 10.7428 4.67696L11.3819 5.27864C11.3862 5.27779 11.39 5.27769 11.3937 5.27759C11.3975 5.2775 11.4012 5.2774 11.4055 5.27654M11.4055 5.27654L11.4245 5.49498L11.4488 5.77406C11.4396 5.77523 11.4315 5.77599 11.4247 5.77649C11.4182 5.77697 11.413 5.7772 11.4101 5.77731L11.4158 5.77714C11.4207 5.77695 11.4278 5.77662 11.4364 5.77599C11.4397 5.77574 11.4432 5.77545 11.4468 5.77511L11.4489 5.77505M11.4055 5.27654L11.4632 5.56475L11.4814 5.65579L11.5036 5.76683C11.4994 5.76768 11.4952 5.76845 11.4912 5.76916C11.4852 5.77022 11.4794 5.77114 11.4738 5.77194C11.4654 5.77314 11.4575 5.77407 11.4503 5.77478L11.4489 5.77505M11.4055 5.27654C11.4127 5.27592 11.421 5.27567 11.4298 5.2754C11.4358 5.27522 11.442 5.27503 11.4483 5.27471C11.5677 5.26434 11.6875 5.25686 11.8072 5.25306C11.88 5.25024 11.9517 5.25121 12.0228 5.25216C12.0444 5.25246 12.0659 5.25274 12.0874 5.25293C12.0954 5.25288 12.1033 5.25281 12.1112 5.25274C12.1453 5.25245 12.1779 5.25217 12.2104 5.25345C12.3536 5.25896 12.4966 5.26644 12.6406 5.28087L13.2831 4.68103C13.3341 4.63344 13.388 4.57921 13.4442 4.52265C13.7233 4.24191 14.0594 3.90383 14.3789 4.03684L15.9744 4.70084C16.2935 4.83363 16.2904 5.30947 16.2878 5.70504L13.6242 5.04659M11.4489 5.77505L11.4536 5.7749L11.4739 5.77405L11.4827 5.7736L11.4915 5.77283C11.6029 5.76317 11.7135 5.75629 11.8231 5.75282L11.8266 5.75268C11.8852 5.75041 11.9396 5.75114 12.007 5.75203C12.0305 5.75234 12.0556 5.75268 12.0831 5.75291L12.0831 5.75296L12.0904 5.75292C12.102 5.75285 12.1121 5.75277 12.1212 5.75269C12.1529 5.75244 12.1712 5.7523 12.1908 5.75307L12.1912 5.75308C12.3304 5.75844 12.4617 5.76545 12.5908 5.77838L12.8162 5.80097L12.9818 5.64635L13.6242 5.04659M13.6242 5.04659C13.6243 5.04656 13.6243 5.04653 13.6243 5.0465C13.6822 4.99247 13.7481 4.92618 13.8079 4.86607C13.8336 4.84021 13.8582 4.8155 13.8805 4.79339C13.9642 4.71051 14.0382 4.6414 14.1072 4.5879C14.1653 4.54294 14.2022 4.52233 14.2223 4.51323L15.7465 5.14757C15.7542 5.16825 15.7654 5.20874 15.7744 5.28103C15.785 5.36756 15.7881 5.46858 15.7882 5.58623C15.7883 5.61762 15.7881 5.65246 15.7878 5.68891C15.7873 5.77366 15.7867 5.86714 15.7891 5.94629L15.7892 5.94696L15.8175 6.82508L15.8239 7.0227L15.9584 7.15719L15.9644 7.16369C15.9689 7.16851 15.9754 7.17531 15.9834 7.1831L16.0001 7.1994L16.0183 7.21407C16.0234 7.2182 16.0281 7.22184 16.0322 7.22493L16.0327 7.2254C16.127 7.30703 16.2103 7.37915 16.2885 7.45437L16.2885 7.45438L16.2909 7.45668C16.3296 7.49346 16.3665 7.5307 16.4094 7.5741C16.4212 7.58602 16.4334 7.5984 16.4463 7.61137C16.4872 7.65334 16.5032 7.66822 16.515 7.67914C16.5258 7.68922 16.533 7.69592 16.5528 7.71744L16.5582 7.72329L16.563 7.72819C16.563 7.7282 16.5656 7.73109 16.5747 7.74176L16.577 7.74457C16.5839 7.75272 16.5957 7.76661 16.6098 7.78224M13.6242 5.04659L16.6098 7.78224M16.6275 7.80304C16.6551 7.83378 16.6796 7.86062 16.7023 7.88544C16.7463 7.93366 16.7834 7.97423 16.8224 8.02091L16.9653 8.19184L17.188 8.19987L18.0645 8.23149L18.0651 8.23151C18.1456 8.23432 18.2401 8.234 18.3256 8.23372C18.3615 8.2336 18.3957 8.23349 18.4267 8.23361C18.5447 8.23408 18.6456 8.23743 18.732 8.24837C18.8043 8.25753 18.8446 8.26892 18.8651 8.27665L19.4939 9.80261C19.4849 9.82257 19.4644 9.85935 19.4192 9.91748C19.3656 9.9863 19.2964 10.06 19.2132 10.1436C19.1909 10.166 19.1659 10.1907 19.1397 10.2166C19.0795 10.2761 19.0131 10.3418 18.9589 10.3996L16.6275 7.80304ZM16.6275 7.80304C16.6199 7.7945 16.6138 7.78715 16.6098 7.78224M16.6275 7.80304L16.6098 7.78224M7.0468 7.41615C7.11489 7.34281 7.18614 7.27144 7.25711 7.20229C7.26438 7.19492 7.27163 7.18755 7.27886 7.18019C7.30757 7.15101 7.33617 7.12192 7.36562 7.093M18.2425 11.7576C18.2469 11.8533 18.2484 11.9503 18.2474 12.0522L18.9586 10.3998L18.3585 11.0381L18.2083 11.1979L18.2241 11.4165C18.229 11.4847 18.2323 11.5491 18.2346 11.6148L18.2349 11.6222L18.2354 11.6297C18.2382 11.6738 18.2405 11.7139 18.2424 11.7567L18.2425 11.7576ZM19.493 14.2404C19.4928 14.2403 19.4922 14.2385 19.4918 14.2351C19.493 14.2387 19.4932 14.2404 19.493 14.2404ZM18.8367 15.7813C18.8368 15.7811 18.8369 15.7809 18.8369 15.7808L18.8367 15.7812L18.8367 15.7813ZM18.8654 15.7397C18.868 15.7376 18.8697 15.7367 18.8699 15.7368C18.87 15.7369 18.8687 15.7379 18.8654 15.7397ZM8.24264 5.14911L8.24269 5.14908L8.24264 5.14911ZM19.4992 9.78917C19.4996 9.78573 19.5002 9.78387 19.5004 9.7838C19.5006 9.78373 19.5004 9.78545 19.4992 9.78917ZM18.8831 8.28548C18.8829 8.28558 18.8812 8.28466 18.8784 8.28244C18.882 8.28427 18.8833 8.28538 18.8831 8.28548ZM14.2415 4.50659C14.2414 4.50678 14.2396 4.50735 14.2363 4.50772C14.2399 4.50659 14.2415 4.5064 14.2415 4.50659ZM15.7377 5.1291C15.7378 5.12892 15.7388 5.13025 15.7406 5.13364C15.7385 5.13098 15.7376 5.12929 15.7377 5.1291ZM16.0586 7.24363C16.0592 7.24404 16.0582 7.24334 16.0567 7.24238L16.0586 7.24363ZM5.12995 8.26232C5.12977 8.26223 5.13109 8.26118 5.13449 8.25943C5.13183 8.26154 5.13013 8.26241 5.12995 8.26232ZM4.50709 9.75847C4.50728 9.75854 4.50786 9.76037 4.50824 9.76377C4.50708 9.7601 4.50689 9.7584 4.50709 9.75847ZM4.49956 14.215C4.49936 14.215 4.49955 14.2133 4.50074 14.2096C4.50036 14.213 4.49976 14.2149 4.49956 14.215ZM5.11694 15.7124C5.11713 15.7123 5.11886 15.7132 5.12155 15.7154C5.1181 15.7136 5.11675 15.7125 5.11694 15.7124ZM8.26291 18.8699C8.26282 18.8701 8.26179 18.8688 8.26007 18.8654C8.26214 18.8681 8.263 18.8697 8.26291 18.8699ZM9.75916 19.4929C9.75923 19.4927 9.76108 19.4921 9.76451 19.4917C9.76081 19.4929 9.75909 19.4931 9.75916 19.4929ZM14.2147 19.5005C14.2147 19.5007 14.213 19.5005 14.2092 19.4992C14.2127 19.4996 14.2146 19.5002 14.2147 19.5005ZM15.7128 18.8827C15.7127 18.8825 15.7136 18.8808 15.7158 18.8781C15.714 18.8816 15.7129 18.8829 15.7128 18.8827Z" stroke="white"/>
<circle cx="12" cy="12" r="2.5" stroke="white"/>
</svg>
