<svg width="24" height="24" viewBox="0 0 24 24" fill="none" xmlns="http://www.w3.org/2000/svg">
<path fill-rule="evenodd" clip-rule="evenodd" d="M11.8368 4.02039L12.8181 5.09127L17.0109 9.66667L17.9272 10.6667H17.8789L18 10.7999V18.2C18 19.1941 17.1941 20 16.2 20H7.8C6.80589 20 6 19.1941 6 18.2V5.8C6 4.80589 6.80589 4 7.8 4H11.8181H11.8183L11.8368 4.02039ZM11.8181 5H7.8C7.35817 5 7 5.35817 7 5.8V18.2C7 18.6418 7.35817 19 7.8 19H16.2C16.6418 19 17 18.6418 17 18.2V10.6667H16.5709H13.6181C12.624 10.6667 11.8181 9.86078 11.8181 8.86667V5.48016V5ZM12.8181 8.86667V6.57143L15.6545 9.66667H13.6181C13.1763 9.66667 12.8181 9.30849 12.8181 8.86667Z" fill="white"/>
</svg>
