<svg width="20" height="20" viewBox="0 0 20 20" fill="none" xmlns="http://www.w3.org/2000/svg">
<path d="M4.43249 12.0868L3.73631 14.6858L1.19178 14.7396C0.431335 13.3292 0 11.7154 0 10.0006C0 8.34229 0.403288 6.77852 1.11814 5.40158H1.11869L3.38404 5.8169L4.3764 8.06866C4.1687 8.67417 4.0555 9.32418 4.0555 10.0006C4.05557 10.7346 4.18855 11.438 4.43249 12.0868Z" fill="#FBBB00"/>
<path d="M19.8249 8.13167C19.9398 8.7366 19.9997 9.36134 19.9997 9.99982C19.9997 10.7158 19.9244 11.4141 19.781 12.0878C19.2942 14.3801 18.0222 16.3818 16.2601 17.7983L16.2595 17.7978L13.4062 17.6522L13.0024 15.1312C14.1716 14.4455 15.0854 13.3724 15.5667 12.0878H10.2194V8.13167H15.6447H19.8249Z" fill="#518EF8"/>
<path d="M16.2609 17.7974L16.2614 17.7979C14.5477 19.1754 12.3707 19.9996 10.0009 19.9996C6.19259 19.9996 2.88156 17.871 1.1925 14.7385L4.43322 12.0857C5.27773 14.3396 7.45194 15.944 10.0009 15.944C11.0965 15.944 12.1229 15.6479 13.0037 15.1308L16.2609 17.7974Z" fill="#28B446"/>
<path d="M16.3828 2.30223L13.1431 4.95446C12.2316 4.38468 11.1541 4.05554 9.9997 4.05554C7.39305 4.05554 5.17817 5.73357 4.37597 8.06826L1.11822 5.40118H1.11768C2.782 2.19234 6.13479 0 9.9997 0C12.4261 0 14.6509 0.864311 16.3828 2.30223Z" fill="#F14336"/>
</svg>
