<svg width="21" height="25" viewBox="0 0 21 25" fill="none" xmlns="http://www.w3.org/2000/svg">
<path d="M7.1395 20.6512C6.95346 21.9535 7.80927 24 10.4883 24C13.1674 24 13.8372 21.9535 13.8372 20.6512"/>
<path d="M10.4884 3.90698C14.507 3.90698 16.6279 7.81395 16.6279 10.0465V14.5116C16.6279 14.5116 19.9768 17.8605 19.9767 18.9767C19.9767 20.093 19.9767 20.6512 18.8605 20.6512C17.7442 20.6512 3.23261 20.6512 2.11628 20.6512C0.999949 20.6512 0.999966 20.093 1 18.9767C1.00003 17.8605 4.34884 14.5116 4.34884 14.5116V10.0465C4.34884 7.81395 6.46977 3.90698 10.4884 3.90698ZM10.4884 3.90698C10.4884 2.38121 10.4884 1.52577 10.4884 0"/>
</svg>
